<svg width="512" height="512" viewBox="0 0 512 512" xmlns="http://www.w3.org/2000/svg">
<circle cx="256" cy="256" r="256" fill="#1a1814"/>
<polygon points="188,175 204,138 220,175" fill="#f5f0e8" stroke="#c9a96e" stroke-width="3"/>
<polygon points="292,175 308,138 324,175" fill="#f5f0e8" stroke="#c9a96e" stroke-width="3"/>
<ellipse cx="256" cy="290" rx="100" ry="110" fill="#272320" stroke="#c9a96e" stroke-width="3"/>
<ellipse cx="256" cy="248" rx="80" ry="76" fill="#1a1814" stroke="#c9a96e" stroke-width="2.5"/>
<circle cx="222" cy="238" r="26" fill="#1a1814" stroke="#c9a96e" stroke-width="3.5"/>
<circle cx="222" cy="238" r="16" fill="#c9a96e"/>
<circle cx="222" cy="238" r="8" fill="#1a1814"/>
<circle cx="228" cy="232" r="4" fill="#FFFFFF" opacity="0.95"/>
<circle cx="290" cy="238" r="26" fill="#1a1814" stroke="#c9a96e" stroke-width="3.5"/>
<circle cx="290" cy="238" r="16" fill="#272320"/>
<polygon points="293,224 286,242 292,242 285,255 296,238 289,238 295,224" fill="#c9a96e"/>
<circle cx="295" cy="232" r="4" fill="#FFFFFF" opacity="0.95"/>
<polygon points="256,268 244,286 268,286" fill="#c9a96e"/>
<path d="M158,278 Q132,330 150,375 Q178,345 222,330" fill="#272320" stroke="#c9a96e" stroke-width="2" fill-opacity="0.95"/>
<path d="M354,278 Q380,330 362,375 Q334,345 290,330" fill="#272320" stroke="#c9a96e" stroke-width="2" fill-opacity="0.95"/>
<path d="M232,310 Q256,320 280,310" stroke="#c9a96e" stroke-width="1.5" fill="none" opacity="0.5"/>
<path d="M228,330 Q256,340 284,330" stroke="#c9a96e" stroke-width="1.5" fill="none" opacity="0.5"/>
<path d="M230,348 Q256,358 282,348" stroke="#c9a96e" stroke-width="1.5" fill="none" opacity="0.5"/>
<line x1="232" y1="395" x2="214" y2="420" stroke="#c9a96e" stroke-width="4" stroke-linecap="round"/>
<line x1="232" y1="395" x2="228" y2="422" stroke="#c9a96e" stroke-width="4" stroke-linecap="round"/>
<line x1="232" y1="395" x2="244" y2="422" stroke="#c9a96e" stroke-width="4" stroke-linecap="round"/>
<line x1="280" y1="395" x2="268" y2="420" stroke="#c9a96e" stroke-width="4" stroke-linecap="round"/>
<line x1="280" y1="395" x2="280" y2="422" stroke="#c9a96e" stroke-width="4" stroke-linecap="round"/>
<line x1="280" y1="395" x2="298" y2="420" stroke="#c9a96e" stroke-width="4" stroke-linecap="round"/>
</svg>
