<svg xmlns="http://www.w3.org/2000/svg" viewBox="0 0 1200 630" fill="none">
  <defs>
    <radialGradient id="glow" cx="600" cy="240" r="200" gradientUnits="userSpaceOnUse">
      <stop offset="0%" stop-color="#c9a96e" stop-opacity="0.12"/>
      <stop offset="100%" stop-color="#c9a96e" stop-opacity="0"/>
    </radialGradient>
  </defs>
  <!-- Warm dark background -->
  <rect width="1200" height="630" fill="#1a1814"/>
  <!-- Gold glow behind logo -->
  <circle cx="600" cy="240" r="200" fill="url(#glow)"/>
  <!-- Owl logo centered -->
  <g transform="translate(510,80) scale(0.55)">
    <polygon points="188,185 204,148 220,185" fill="#F0F6FF" stroke="#c9a96e" stroke-width="2"/>
    <polygon points="292,185 308,148 324,185" fill="#F0F6FF" stroke="#c9a96e" stroke-width="2"/>
    <ellipse cx="256" cy="300" rx="95" ry="105" fill="#272320" stroke="#c9a96e" stroke-width="2.5"/>
    <ellipse cx="256" cy="258" rx="75" ry="72" fill="#1a1814" stroke="#c9a96e" stroke-width="2"/>
    <circle cx="224" cy="248" r="24" fill="#1a1814" stroke="#c9a96e" stroke-width="3"/>
    <circle cx="224" cy="248" r="14" fill="#c9a96e"/>
    <circle cx="224" cy="248" r="7" fill="#1a1814"/>
    <circle cx="229" cy="243" r="3.5" fill="#FFFFFF" opacity="0.95"/>
    <circle cx="288" cy="248" r="24" fill="#1a1814" stroke="#c9a96e" stroke-width="3"/>
    <circle cx="288" cy="248" r="14" fill="#272320"/>
    <polygon points="291,235 284,251 290,251 283,263 294,246 287,246 293,235" fill="#c9a96e"/>
    <circle cx="293" cy="241" r="3.5" fill="#FFFFFF" opacity="0.95"/>
    <polygon points="256,276 245,292 267,292" fill="#c9a96e"/>
    <path d="M162,285 Q138,335 155,378 Q180,350 222,336" fill="#272320" stroke="#c9a96e" stroke-width="1.5" fill-opacity="0.95"/>
    <path d="M350,285 Q374,335 357,378 Q332,350 290,336" fill="#272320" stroke="#c9a96e" stroke-width="1.5" fill-opacity="0.95"/>
    <path d="M234,318 Q256,327 278,318" stroke="#c9a96e" stroke-width="1" fill="none" opacity="0.4"/>
    <path d="M230,336 Q256,346 282,336" stroke="#c9a96e" stroke-width="1" fill="none" opacity="0.4"/>
    <path d="M232,354 Q256,363 280,354" stroke="#c9a96e" stroke-width="1" fill="none" opacity="0.4"/>
    <line x1="232" y1="400" x2="214" y2="424" stroke="#c9a96e" stroke-width="3" stroke-linecap="round"/>
    <line x1="232" y1="400" x2="228" y2="426" stroke="#c9a96e" stroke-width="3" stroke-linecap="round"/>
    <line x1="232" y1="400" x2="242" y2="426" stroke="#c9a96e" stroke-width="3" stroke-linecap="round"/>
    <line x1="280" y1="400" x2="270" y2="426" stroke="#c9a96e" stroke-width="3" stroke-linecap="round"/>
    <line x1="280" y1="400" x2="280" y2="426" stroke="#c9a96e" stroke-width="3" stroke-linecap="round"/>
    <line x1="280" y1="400" x2="298" y2="424" stroke="#c9a96e" stroke-width="3" stroke-linecap="round"/>
  </g>
  <!-- SavvyOwl text -->
  <text x="600" y="460" font-family="system-ui, -apple-system, sans-serif" font-size="64" font-weight="700" fill="#f5f0e8" letter-spacing="3" text-anchor="middle">SavvyOwl</text>
  <!-- Tagline -->
  <text x="600" y="510" font-family="system-ui, -apple-system, sans-serif" font-size="22" font-weight="400" fill="#c9a96e" letter-spacing="3" text-anchor="middle">Conteúdo para redes sociais 3x mais rápido</text>
</svg>